<svg class="hidden">
  <symbol fill="none" xmlns="http://www.w3.org/2000/svg" viewBox="0 0 19 14" id="twitter">
    <path d="M18.3258 2.2915C17.666 2.54683 16.9682 2.71657 16.2538 2.79551C17.007 2.39946 17.5701 1.77217 17.8366 1.03252C17.1323 1.40295 16.3618 1.66402 15.5583 1.80449C15.0653 1.33659 14.4249 1.0111 13.7204 0.870384C13.0159 0.72967 12.2799 0.780242 11.6083 1.01552C10.9367 1.2508 10.3604 1.65989 9.95458 2.18957C9.54872 2.71925 9.33204 3.34499 9.33271 3.98537C9.33008 4.22983 9.35823 4.47377 9.41664 4.71269C7.98569 4.65039 6.58567 4.32098 5.30811 3.746C4.03055 3.17102 2.90421 2.36341 2.00273 1.37597C1.53976 2.07766 1.39636 2.90962 1.60184 3.7019C1.80731 4.49419 2.34615 5.18701 3.10828 5.63885C2.53906 5.62545 1.98181 5.49088 1.48352 5.24648V5.28157C1.48429 6.01768 1.77079 6.73111 2.29486 7.30197C2.81894 7.87282 3.54864 8.2663 4.36132 8.41625C4.05347 8.48866 3.73613 8.52442 3.41764 8.52258C3.18908 8.52627 2.96073 8.50809 2.73656 8.46836C2.96871 9.10099 3.41614 9.65433 4.01735 10.0523C4.61856 10.4502 5.34402 10.6733 6.09399 10.6907C4.82224 11.5719 3.25452 12.0503 1.6406 12.0496C1.35287 12.0514 1.0653 12.0369 0.779663 12.006C2.4238 12.9455 4.33956 13.4426 6.29544 13.4373C7.6423 13.4456 8.97761 13.2166 10.2238 12.7634C11.47 12.3102 12.6022 11.642 13.5547 10.7975C14.5072 9.95306 15.261 8.94917 15.7724 7.84418C16.2837 6.73918 16.5423 5.55511 16.5332 4.36073C16.5332 4.21931 16.5332 4.0832 16.52 3.94816C17.2306 3.49799 17.8426 2.93657 18.3258 2.2915Z" fill="white"></path>
  </symbol>
  <symbol fill="none" xmlns="http://www.w3.org/2000/svg" viewBox="0 0 9 17" id="facebook">
    <path d="M0.996726 8.64498H2.78562V15.9054C2.78562 15.9742 2.81336 16.0402 2.86273 16.0889C2.9121 16.1375 2.97906 16.1649 3.04888 16.1649H6.08288C6.1527 16.1649 6.21966 16.1375 6.26903 16.0889C6.3184 16.0402 6.34614 15.9742 6.34614 15.9054V8.67901H8.40369C8.46821 8.67891 8.53045 8.65546 8.57858 8.61312C8.62672 8.57078 8.6574 8.51249 8.6648 8.44933L8.97769 5.77611C8.98195 5.73981 8.97838 5.70302 8.9672 5.66817C8.95603 5.63332 8.93751 5.60119 8.91286 5.57388C8.88821 5.54657 8.85798 5.52471 8.82415 5.50972C8.79033 5.49473 8.75367 5.48695 8.71658 5.48689H6.3429V3.81214C6.3429 3.30706 6.61912 3.0508 7.16291 3.0508H8.71227C8.78209 3.0508 8.84905 3.02346 8.89842 2.9748C8.94779 2.92615 8.97553 2.86016 8.97553 2.79134V0.33824C8.97611 0.269792 8.94923 0.203892 8.90072 0.154896C8.85222 0.105901 8.78603 0.0777799 8.71658 0.0766602L6.5792 0.0766602H6.48101C5.49678 0.0800831 4.54678 0.433064 3.80523 1.07087C3.45531 1.37224 3.18683 1.75456 3.02392 2.18349C2.86102 2.61241 2.8088 3.0745 2.87193 3.52823V5.48795H0.993483C0.923661 5.48795 0.856702 5.51529 0.807331 5.56394C0.75796 5.6126 0.730225 5.67859 0.730225 5.7474V8.38553C0.730222 8.41987 0.737133 8.45387 0.750565 8.48556C0.763997 8.51725 0.783685 8.54599 0.808475 8.57013C0.833265 8.59426 0.862667 8.6133 0.894982 8.62615C0.927297 8.639 0.961883 8.6454 0.996726 8.64498Z" fill="white"></path>
  </symbol>
 <symbol fill="none" xmlns="http://www.w3.org/2000/svg" viewBox="0 0 12 11" id="star-full">
    <path d="M11.9519 4.26834L8.33201 6.7417L9.39476 10.7611L5.87739 8.33345L2.13348 10.6325L3.57923 6.65772L0.203247 4.06001L4.61392 4.03132L6.27119 0.12677L7.55086 4.08337L11.9519 4.26834Z" fill="#C1C8CE"></path>
  </symbol>
  <symbol fill="none" xmlns="http://www.w3.org/2000/svg" viewBox="0 0 13 11" id="star">
    <path d="M12.574 4.26834L8.95408 6.7417L10.0169 10.7611L6.49949 8.33345L2.75555 10.6325L4.20133 6.65772L0.825317 4.06001L5.23606 4.03132L6.89329 0.12677L8.17293 4.08337L12.574 4.26834Z" fill="#FFC600"></path>
  </symbol>
  <symbol fill="none" xmlns="http://www.w3.org/2000/svg" viewBox="0 0 8 5" id="arrow down">
    <path d="M3.85184 4.6669L0.154884 0.538269H7.54988L3.85184 4.6669Z" fill="#22262A"></path>
  </symbol>
</svg>



